<svg xmlns="http://www.w3.org/2000/svg" width="100" height="100" viewBox="0 0 100 100">
  <defs>
    <style>
      .cls-1 {
        fill: #000;
        fill-rule: evenodd;
      }
    </style>
  </defs>
  <path id="facebook-white.svg" class="cls-1" d="M0-.012V100.015H99.917V-0.012H0ZM61.027,41.475L60.413,49H52.727V74.97H43.043V49H37.97V41.475h5.072V36.557a38.687,38.687,0,0,1,.231-3.919,7.917,7.917,0,0,1,1.46-3.918,9.162,9.162,0,0,1,3.074-2.688,10.352,10.352,0,0,1,4.919-1c1.638,0,3.048.054,4.227,0.153s2.176,0.207,3,.308c0.922,0.207,1.638.36,2.152,0.46L60.72,33.638c-0.514-.1-0.975-0.2-1.384-0.307s-0.845-.2-1.306-0.307a6.8,6.8,0,0,0-1.46-.153,5.658,5.658,0,0,0-2.69.613,2.232,2.232,0,0,0-1.153,2.153v5.839h8.3ZM128.046-.012V99.86h99.915V-0.012H128.046Zm69.94,43.484a29.69,29.69,0,0,1-1.921,10.293,29.125,29.125,0,0,1-5.611,9.373,29.527,29.527,0,0,1-9.146,6.837,29.975,29.975,0,0,1-20.9,1.46,30.458,30.458,0,0,1-7.3-3.381,13.835,13.835,0,0,0,2.46.153,20.629,20.629,0,0,0,6.84-1.152,19.127,19.127,0,0,0,5.918-3.3,9.5,9.5,0,0,1-6.071-2,10.888,10.888,0,0,1-3.613-5.07,3.139,3.139,0,0,0,1,.153h1a13.542,13.542,0,0,0,2.614-.307A10.211,10.211,0,0,1,157.405,53a9.986,9.986,0,0,1-2.305-6.607,9.135,9.135,0,0,0,4.611,1.23,9.771,9.771,0,0,1-3.382-3.688,10.277,10.277,0,0,1-1.229-4.917,8.7,8.7,0,0,1,.384-2.613,16.453,16.453,0,0,1,1-2.458,30.99,30.99,0,0,0,9.3,7.53A27.7,27.7,0,0,0,177.7,44.7a11.007,11.007,0,0,1-.231-1.153,9.1,9.1,0,0,1-.077-1.3,9.684,9.684,0,0,1,3-7.221,10.076,10.076,0,0,1,7.3-2.919,9.692,9.692,0,0,1,7.532,3.227,19.027,19.027,0,0,0,6.457-2.612,9.663,9.663,0,0,1-4.458,5.685,19.2,19.2,0,0,0,3-.538,18.456,18.456,0,0,0,2.844-1,22.426,22.426,0,0,1-5.073,5.225v1.383ZM256.09-.012V100.015H356V-0.012H256.09Zm35.969,70.833h-9.838V39.631h9.838V70.821Zm-9.454-36.645a5.161,5.161,0,0,1-1.614-3.766,5.083,5.083,0,0,1,1.614-3.84,6.1,6.1,0,0,1,4.381-1.537,5.885,5.885,0,0,1,4.227,1.537,5.083,5.083,0,0,1,1.614,3.84,5.161,5.161,0,0,1-1.614,3.766,5.923,5.923,0,0,1-4.381,1.612A5.718,5.718,0,0,1,282.605,34.176Zm48.344,36.645H319.881V54.689a9.106,9.106,0,0,0-1.306-5.071,4.68,4.68,0,0,0-4.228-2,4.566,4.566,0,0,0-3.381,1.229,8.666,8.666,0,0,0-1.845,2.611,1.675,1.675,0,0,0-.231,1.153,13.3,13.3,0,0,1,.077,1.46V70.821H298.054V39.631h10.913v4.917a6.938,6.938,0,0,1,3-3.458,11.48,11.48,0,0,1,6.686-1.766,12.039,12.039,0,0,1,8.762,3.457q3.534,3.457,3.536,10.679V70.821Z"/>
</svg>
