<svg xmlns="http://www.w3.org/2000/svg" width="100" height="99.969" viewBox="0 0 100 99.969">
  <defs>
    <style>
      .cls-1 {
        fill: #fff;
        fill-rule: evenodd;
      }
    </style>
  </defs>
  <path id="linkedin-white.svg" class="cls-1" d="M-254.966.019v100h99.634v-100h-99.634Zm60.853,41.474-0.613,7.525h-7.664V74.977h-9.657V49.019H-217.1V41.493h5.058V36.577a38.85,38.85,0,0,1,.23-3.918,7.924,7.924,0,0,1,1.456-3.917,9.14,9.14,0,0,1,3.066-2.687,10.3,10.3,0,0,1,4.905-1c1.633,0,3.039.054,4.215,0.153s2.17,0.207,2.989.308q1.38,0.31,2.146.46l-1.379,7.68c-0.513-.1-0.973-0.2-1.38-0.307s-0.843-.2-1.3-0.307a6.753,6.753,0,0,0-1.456-.153,5.634,5.634,0,0,0-2.683.613,2.233,2.233,0,0,0-1.149,2.152v5.837h8.277ZM-127.282.019V99.86h99.634V0.019h-99.634ZM-57.538,43.49A29.743,29.743,0,0,1-59.455,53.78a29.132,29.132,0,0,1-5.595,9.37,29.455,29.455,0,0,1-9.12,6.835,27.829,27.829,0,0,1-12.493,2.688,27.636,27.636,0,0,1-8.354-1.228,30.316,30.316,0,0,1-7.281-3.38,13.747,13.747,0,0,0,2.452.153,20.526,20.526,0,0,0,6.821-1.151,19.077,19.077,0,0,0,5.9-3.3,9.46,9.46,0,0,1-6.055-2,10.881,10.881,0,0,1-3.6-5.068,3.118,3.118,0,0,0,1,.153h1a13.465,13.465,0,0,0,2.606-.307,10.176,10.176,0,0,1-5.825-3.533,10,10,0,0,1-2.3-6.6,9.094,9.094,0,0,0,4.6,1.23,9.749,9.749,0,0,1-3.372-3.687,10.29,10.29,0,0,1-1.227-4.915,8.706,8.706,0,0,1,.384-2.612,16.369,16.369,0,0,1,1-2.457,30.913,30.913,0,0,0,9.274,7.527,27.57,27.57,0,0,0,11.88,3.224A10.8,10.8,0,0,1-78,43.565a9.129,9.129,0,0,1-.077-1.3,9.691,9.691,0,0,1,2.989-7.219,10.036,10.036,0,0,1,7.281-2.918A9.656,9.656,0,0,1-60.3,35.348a18.935,18.935,0,0,0,6.438-2.611A9.653,9.653,0,0,1-58.3,38.421a19.113,19.113,0,0,0,2.989-.538,18.4,18.4,0,0,0,2.836-1,22.4,22.4,0,0,1-5.058,5.223V43.49ZM0.4,0.019v100h99.634v-100H0.4ZM36.27,70.831h-9.81V39.649h9.81V70.831ZM26.843,34.2a5.165,5.165,0,0,1-1.61-3.765,5.087,5.087,0,0,1,1.61-3.839,6.071,6.071,0,0,1,4.369-1.537,5.86,5.86,0,0,1,4.215,1.537,5.088,5.088,0,0,1,1.609,3.839A5.166,5.166,0,0,1,35.427,34.2a5.9,5.9,0,0,1-4.369,1.612A5.693,5.693,0,0,1,26.843,34.2ZM75.05,70.831H64.014V54.7a9.118,9.118,0,0,0-1.3-5.069,4.662,4.662,0,0,0-4.215-2,4.549,4.549,0,0,0-3.372,1.229,8.674,8.674,0,0,0-1.839,2.61,1.671,1.671,0,0,0-.23,1.152,13.443,13.443,0,0,1,.077,1.46V70.831H42.248V39.649H53.131v4.915a6.928,6.928,0,0,1,2.989-3.457,11.427,11.427,0,0,1,6.668-1.766A11.991,11.991,0,0,1,71.525,42.8q3.524,3.456,3.525,10.676V70.831Z" transform="translate(0 -0.031)"/>
</svg>
