<svg xmlns="http://www.w3.org/2000/svg" width="100" height="99.969" viewBox="0 0 100 99.969">
  <defs>
    <style>
      .cls-1 {
        fill: #000;
        fill-rule: evenodd;
      }
    </style>
  </defs>
  <path id="twitter-white.svg" class="cls-1" d="M-127.966.019v100h99.634v-100h-99.634Zm60.853,41.474-0.613,7.525H-75.39V74.977h-9.657V49.019h-5.058V41.493h5.058V36.577a38.765,38.765,0,0,1,.23-3.918,7.926,7.926,0,0,1,1.456-3.917A9.144,9.144,0,0,1-80.3,26.055a10.3,10.3,0,0,1,4.905-1c1.633,0,3.039.054,4.215,0.153s2.17,0.207,2.989.308c0.92,0.207,1.633.36,2.146,0.46l-1.379,7.68c-0.513-.1-0.972-0.2-1.38-0.307s-0.843-.2-1.3-0.307a6.755,6.755,0,0,0-1.456-.153,5.632,5.632,0,0,0-2.683.613,2.233,2.233,0,0,0-1.15,2.152v5.837h8.277ZM-0.282.019V99.86H99.352V0.019H-0.282ZM69.462,43.49A29.743,29.743,0,0,1,67.545,53.78a29.132,29.132,0,0,1-5.595,9.37,29.455,29.455,0,0,1-9.12,6.835,27.829,27.829,0,0,1-12.493,2.688,27.636,27.636,0,0,1-8.354-1.228,30.329,30.329,0,0,1-7.281-3.38,13.751,13.751,0,0,0,2.453.153,20.526,20.526,0,0,0,6.821-1.151,19.077,19.077,0,0,0,5.9-3.3,9.46,9.46,0,0,1-6.055-2,10.881,10.881,0,0,1-3.6-5.068,3.118,3.118,0,0,0,1,.153h1a13.465,13.465,0,0,0,2.606-.307,10.176,10.176,0,0,1-5.825-3.533,10,10,0,0,1-2.3-6.6,9.092,9.092,0,0,0,4.6,1.23,9.749,9.749,0,0,1-3.372-3.687A10.29,10.29,0,0,1,26.7,39.035a8.716,8.716,0,0,1,.383-2.612,16.369,16.369,0,0,1,1-2.457,30.913,30.913,0,0,0,9.274,7.527,27.57,27.57,0,0,0,11.88,3.224A10.8,10.8,0,0,1,49,43.565a9.129,9.129,0,0,1-.077-1.3,9.691,9.691,0,0,1,2.989-7.219,10.036,10.036,0,0,1,7.281-2.918A9.656,9.656,0,0,1,66.7,35.348a18.935,18.935,0,0,0,6.438-2.611A9.653,9.653,0,0,1,68.7,38.421a19.113,19.113,0,0,0,2.989-.538,18.4,18.4,0,0,0,2.836-1,22.4,22.4,0,0,1-5.058,5.223V43.49ZM127.4,0.019v100h99.634v-100H127.4ZM163.27,70.831h-9.811V39.649h9.811V70.831ZM153.843,34.2a5.166,5.166,0,0,1-1.61-3.765,5.088,5.088,0,0,1,1.61-3.839,6.07,6.07,0,0,1,4.368-1.537,5.86,5.86,0,0,1,4.216,1.537,5.09,5.09,0,0,1,1.609,3.839,5.169,5.169,0,0,1-1.609,3.765,5.9,5.9,0,0,1-4.369,1.612A5.692,5.692,0,0,1,153.843,34.2ZM202.05,70.831H191.014V54.7a9.118,9.118,0,0,0-1.3-5.069,4.662,4.662,0,0,0-4.215-2,4.549,4.549,0,0,0-3.373,1.229,8.675,8.675,0,0,0-1.839,2.61,1.674,1.674,0,0,0-.23,1.152,13.543,13.543,0,0,1,.077,1.46V70.831H169.248V39.649h10.883v4.915a6.925,6.925,0,0,1,2.989-3.457,11.426,11.426,0,0,1,6.668-1.766,11.99,11.99,0,0,1,8.737,3.456q3.523,3.456,3.525,10.676V70.831Z" transform="translate(0 -0.031)"/>
</svg>
